<svg id="Capa_1" data-name="Capa 1" xmlns="http://www.w3.org/2000/svg" viewBox="0 0 583.93 614.71"><defs><style>.cls-1{fill:none;}.cls-1,.cls-2{stroke:#040148;stroke-linecap:round;stroke-linejoin:round;stroke-width:10px;}.cls-2{fill:#020202;}</style></defs><title>ICONO ANALISIS</title><path class="cls-1" d="M367.49,576.44H247.1a13.94,13.94,0,0,1-13.89-13.89h0a14,14,0,0,1,13.89-13.89H367.49a13.93,13.93,0,0,1,13.89,13.89h0A13.92,13.92,0,0,1,367.49,576.44Z" transform="translate(-14.75 -8.25)"/><path class="cls-1" d="M346.65,622.5H271.41a13.93,13.93,0,0,1-13.89-13.9h0a13.92,13.92,0,0,1,13.89-13.88h75.24a13.93,13.93,0,0,1,13.9,13.88h0A13.94,13.94,0,0,1,346.65,622.5Z" transform="translate(-14.75 -8.25)"/><path class="cls-2" d="M306.7,126c-94.31,0-171,76.84-171,171.28a170.89,170.89,0,0,0,55.44,125.79,127.62,127.62,0,0,1,41.17,93.7,10.47,10.47,0,0,0,10.47,10.47H370.68a10.47,10.47,0,0,0,10.47-10.47,128.28,128.28,0,0,1,41.08-93.66,170.11,170.11,0,0,0,55.52-125.83C477.75,202.85,401,126,306.7,126Zm-47.06,96.82a89,89,0,0,0-34.57,120.69,12.09,12.09,0,0,1-4.72,16.39,11.71,11.71,0,0,1-5.73,1.38,12,12,0,0,1-10.48-6.12C173.91,300.85,193.67,231.91,248,201.89a12,12,0,1,1,11.65,20.94Z" transform="translate(-14.75 -8.25)"/><line class="cls-1" x1="292.54" y1="67.88" x2="292.54" y2="0.46"/><line class="cls-1" x1="292.54" y1="67.88" x2="292.54" y2="0.46"/><line class="cls-1" x1="180.42" y1="97.61" x2="146.72" y2="39.23"/><line class="cls-1" x1="98.19" y1="179.42" x2="39.81" y2="145.71"/><line class="cls-1" x1="67.88" y1="291.38" x2="0.46" y2="291.38"/><line class="cls-1" x1="97.61" y1="403.5" x2="39.23" y2="437.21"/><line class="cls-1" x1="485.74" y1="404.51" x2="544.12" y2="438.22"/><line class="cls-1" x1="516.05" y1="292.54" x2="583.46" y2="292.54"/><line class="cls-1" x1="486.31" y1="180.42" x2="544.7" y2="146.72"/><line class="cls-1" x1="404.51" y1="98.19" x2="438.22" y2="39.81"/></svg>
