<svg id="Capa_1" data-name="Capa 1" xmlns="http://www.w3.org/2000/svg" viewBox="0 0 1011.02 618.86"><defs><style>.cls-1{fill:none;}.cls-1,.cls-2{stroke:#040148;stroke-linecap:round;stroke-linejoin:round;stroke-width:10px;}.cls-2{fill:#020202;}</style></defs><title>ICONO INTERACCIÓN</title><path class="cls-1" d="M444.76,167.67H68.44A61.94,61.94,0,0,0,6.5,229.61V464.8a61.94,61.94,0,0,0,61.94,61.94H249.87l55,99.14,55-99.14H541.24a61.94,61.94,0,0,0,61.93-61.94V350.21M170.11,397.4a50.2,50.2,0,1,1,50.19-50.2A50.2,50.2,0,0,1,170.11,397.4Zm134.73,0A50.2,50.2,0,1,1,355,347.2,50.2,50.2,0,0,1,304.84,397.4Zm134.72,0a50.2,50.2,0,1,1,50.2-50.2A50.2,50.2,0,0,1,439.56,397.4Z" transform="translate(-6.04 -7.48)"/><path class="cls-2" d="M954.65,7.94H481.85a61.94,61.94,0,0,0-61.93,61.94V305.07A61.93,61.93,0,0,0,481.85,367H663.29l55,99.15,55-99.15H954.65a61.94,61.94,0,0,0,61.94-61.93V69.88A61.94,61.94,0,0,0,954.65,7.94ZM583.53,237.67a50.2,50.2,0,1,1,50.19-50.2A50.2,50.2,0,0,1,583.53,237.67Zm134.72,0a50.2,50.2,0,1,1,50.2-50.2A50.2,50.2,0,0,1,718.25,237.67Zm134.73,0a50.2,50.2,0,1,1,50.19-50.2A50.2,50.2,0,0,1,853,237.67Z" transform="translate(-6.04 -7.48)"/></svg>
