<svg id="Capa_1" data-name="Capa 1" xmlns="http://www.w3.org/2000/svg" viewBox="0 0 697.13 595.28"><defs><style>.cls-1,.cls-2{fill:#f5a305;}.cls-1{fill-rule:evenodd;}</style></defs><title>logo web css interno</title><path class="cls-1" d="M582.37,380.18c-6.22-32-44.3-49.23-34.6-91.09,4-17.16,28.89-24.26,37.65-36.69-5.36,2.49-12,10.94-18.32,6.11,5.89-11.37,3.29-21.59.19-31.73-.36,0-.74.05-1.13.05l-.57,0a67.76,67.76,0,0,1-.52,15.41c-3.29,22.27-24.05,40.89-25.3,63.66-4.87,1.08-19.59-11.53-15.41-6.66,12.82,8,15.41,21.59,18.32,36.64,6.35,32.89,46.47,46.27,16,65a9.83,9.83,0,0,1,1.78.62c14.94-4.44,14.26-6.31,39.25-2.52C593.78,392.2,584,388.78,582.37,380.18Z" transform="translate(-11.27)"/><path class="cls-2" d="M66.37,403V260h20v61.81h36.73V260H143V403H123.06V336.11H86.33V403Z" transform="translate(-11.27)"/><path class="cls-2" d="M250.36,403V260h35.5q12.88,0,20.57,4.68a27.1,27.1,0,0,1,11.21,13.51q3.53,8.83,3.53,21.37,0,11.29-4,19.6A28.8,28.8,0,0,1,305.46,332q-7.79,4.5-19.43,4.5H270.32V403Zm20-80.87h9.18q8.65,0,13.6-1.94a12.36,12.36,0,0,0,7.06-6.8q2.11-4.86,2.12-13.69,0-10.23-1.5-15.71a11,11,0,0,0-6.27-7.59q-4.77-2.13-14.83-2.12h-9.36Z" transform="translate(-11.27)"/><path class="cls-2" d="M335.12,403V260h55.45v14.84h-35.5v47.32h28.79v14.13H355.07v52.44h35.85V403Z" transform="translate(-11.27)"/><path class="cls-2" d="M407,403V260h28.78q14.31,0,23.66,3.8A26.42,26.42,0,0,1,473.29,276q4.5,8.38,4.51,22a60.4,60.4,0,0,1-1.77,15.1,29.22,29.22,0,0,1-5.65,11.48,22.08,22.08,0,0,1-10.24,6.79L480.44,403H461.2l-18.72-67.1H426.94V403Zm19.95-81.4h7.59q8.48,0,13.78-2.12a14.18,14.18,0,0,0,7.77-7.24q2.46-5.11,2.47-14.3,0-12.54-4.59-18.1t-18.19-5.56h-8.83Z" transform="translate(-11.27)"/><path class="cls-2" d="M499.69,403V260h19.6V403Z" transform="translate(-11.27)"/><path class="cls-2" d="M579,404.62q-14.47,0-23.13-5.65a30.92,30.92,0,0,1-12.36-16.16q-3.71-10.5-3.71-24.63V304q0-14.12,3.8-24.28a30.32,30.32,0,0,1,12.36-15.54q8.57-5.38,23-5.38t23,5.47a30.88,30.88,0,0,1,12.27,15.54Q618,289.85,618,304v54.39q0,14-3.8,24.37a32.17,32.17,0,0,1-12.27,16.15Q593.45,404.63,579,404.62Zm0-15.71q7.95,0,12-3.27a16.15,16.15,0,0,0,5.47-9.18,59.76,59.76,0,0,0,1.42-13.86V299.91a57.33,57.33,0,0,0-1.42-13.68A15.19,15.19,0,0,0,591,277.4q-4.07-3.09-12-3.09c-5.29,0-9.33,1-12.09,3.09a15.07,15.07,0,0,0-5.57,8.83,57.93,57.93,0,0,0-1.4,13.68V362.6a60.39,60.39,0,0,0,1.4,13.86,16,16,0,0,0,5.57,9.18C569.64,387.82,573.68,388.91,579,388.91Z" transform="translate(-11.27)"/><path class="cls-2" d="M637.59,403V260h13.6l40.61,95V260h16.6V403H695.69l-41.15-97.64V403Z" transform="translate(-11.27)"/><path class="cls-2" d="M203.52,396.54a18.53,18.53,0,0,1-1.24-3.08,24.87,24.87,0,0,1-.8-5.29c-3.81,2.18-7,4.84-11,5.77-8.17,1.92-16.26-.55-24.43,2-12,3.79-22.88,14.63-34.61,20.35-12.15,5.93-27.47,9.35-30.53,22.39A195.3,195.3,0,0,1,188.46,398c-15.25,14.14-29,28.74-46.82,36.64-16.07,7.13-30.28,7.23-42.75,16.29-19.46,14.14-27.32,35.85-48.85,55-17.21,15.28-40.39,29.62-38.68,57,5.07-34.52,35.76-44.43,55-63.11,16.79-16.32,28.05-40.88,52.93-46.82-13.9,22.06-28.74,43.19-36.64,71.25,16.25-25.08,25-62.75,55-79.39,15.29-8.5,30.32-13.89,44.78-24.43,7.19-5.23,16.35-12.7,24.05-17.37C205.12,400.74,202.66,399.54,203.52,396.54Z" transform="translate(-11.27)"/><path class="cls-2" d="M187.41,393.18c2.82,3,5.6,6.05,8.51,9a10.24,10.24,0,0,1,2.76,5.3c13.93,5,24.3,17.09,35.5,27,14.14,12.53,28.25,19.13,42.75,28.5,23.93,15.46,33.62,59.81,44.78,85.5-3.6-30.33-17.41-50.45-26.46-75.32,36.8,35.8,74.62,70.59,95.67,122.14-3.15-49.78-44.86-61-59-99.75,17.06,12.79,31.3,28.41,44.78,44.78-13.18-20.74-28.05-39.8-50.89-50.89-21.41-33.55-80.06-40.7-91.6-77.35,32.41,9,59.95,33.68,81.42,46.82C282.28,427.59,241.75,403.48,187.41,393.18Z" transform="translate(-11.27)"/><path class="cls-2" d="M243.55,495.58c-3.07-28.15-17.44-62.63-38.68-79.39a161.13,161.13,0,0,1-4.08-23,10.59,10.59,0,0,1-7.46,1.85c13.33,45.74,15.91,102.24,46.15,131.08-21.26-20.81-22-62.16-30.54-95.67C226,438.51,236.19,471,243.55,495.58Z" transform="translate(-11.27)"/><path class="cls-1" d="M146.83,131.48a10.69,10.69,0,0,1-3.82,2c10.53,16.12,5.94,42.39,6.85,66.14a51.31,51.31,0,0,0-4.84,2.86,65.66,65.66,0,0,1,1,7.37,21.3,21.3,0,0,1,5.84-2.09c4,17.67,17,26.39,26.48,38.66a12.32,12.32,0,0,1-2.66,2.09,9.28,9.28,0,0,1,2.91,5.61l1.79.45c21.3,35.57-7.87,77-4,134.35.33,4.81.78,9.38,1.31,13.81,7.79,4.08,15.05,9.26,22.42,14.18A128.83,128.83,0,0,1,213.33,402c-15.48-24.2-14.16-65.35,4.49-86.77A8.72,8.72,0,0,1,216,306.3c.64-1.8,1.35-3.58,2.07-5.36-.33.16-.69.28-1,.43-3.84-12.69,9.65-25.59,14.23-36.64.72,1,1.39,2.1,2.07,3.17a56,56,0,0,1,6.15-5.16,21.39,21.39,0,0,1-.08-6.16c1.24-9.59,24.21-26.57,36.62-36.66,13.33-10.84,31.26-20.84,42.73-30.55,6.14-5.21,14.12-16.79,22.38-22.41,33.17-22.58,59.14.58,95.67-2.09,17.24-1.25,32-9.67,38.67-24.44-28.13,35.34-77.83,1.32-120.1,6.17,20.37-28.32,9-70.58,24.37-99.76C390.83,26,412.48,18.46,422.53,0c-26.65,15.43-47.89,36.25-59,67.21-12-9.68-23.12-20.31-28.52-36.63-2.52,30.07,26.22,28.12,28.53,50.87,1.89,18.64-15.8,49.5-28.47,65.16-17.62,21.77-43.58,38.22-59,50.92,1.45-28.33-23.36-37.55-20.38-61.06-.67,4.76-2.44,8.41-4.07,12.22,4.82,15.67,18.22,23.28,18.34,38.66.19,21.88-19.75,26.45-32.55,36.66-16.94,13.52-23.82,33.58-36.62,38.7-15.65-45.94-4.58-122.4,26.39-142.51,20.87-13.54,58.1-6.13,61.05-34.63-10.37,27.61-59,17-77.33,36.68,1.59-9.06-2.72-12.22-2-20.36,10.24-6.75,25.27-19.49,24.41-30.55-6.79,9.49-13.19,19.38-26.45,22.41C189.79,70.34,173.22,44,178.26,4.2c-19.1,36.65,8.52,67,18.37,93.63-3.37.34-6.77.65-10.18,1a64.27,64.27,0,0,1,2.28,7.6c3.35-.1,6.68-.22,9.94-.41,1.83,36.42-10.94,58.24-18.28,85.5A122.85,122.85,0,0,1,156,197.59C157.76,168.81,158.26,145.86,146.83,131.48Zm29.49,64.07c4.28,5.07-2.4,16.5-2,24.42-8.21-2.64-13.58-8.13-14.26-18.31C164,198.2,172.63,199.31,176.32,195.55Z" transform="translate(-11.27)"/></svg>