<svg id="Capa_1" data-name="Capa 1" xmlns="http://www.w3.org/2000/svg" viewBox="0 0 673.69 489.43"><defs><style>.cls-1{fill:none;}.cls-1,.cls-2{stroke:#040148;stroke-linecap:round;stroke-linejoin:round;stroke-width:10px;}.cls-2{fill:#020202;}</style></defs><title>ICONO PLAN</title><polygon class="cls-1" points="669.72 454.23 3.98 454.23 59.9 369.68 613.79 369.68 669.72 454.23"/><path class="cls-1" d="M621.32,384.39H67.43V27.13A13.43,13.43,0,0,1,80.86,13.7h527a13.42,13.42,0,0,1,13.42,13.42Z" transform="translate(-7.53 -13.24)"/><path class="cls-1" d="M680.76,488.79c0,7.41-1.54,13.42-8.94,13.42H16.94c-7.42,0-9-6-9-13.42V477.28c0-7.41,1.53-13.42,9-13.42H671.82c7.4,0,8.94,6,8.94,13.42Z" transform="translate(-7.53 -13.24)"/><path class="cls-2" d="M571,39.65H117.74A11.55,11.55,0,0,0,106.2,51.2V346.9a11.54,11.54,0,0,0,11.54,11.54H571a11.54,11.54,0,0,0,11.54-11.54V51.2A11.55,11.55,0,0,0,571,39.65ZM390.21,294.47h0a106,106,0,0,1-91.67,0h0a105.88,105.88,0,0,1,0-190.85h0a106.11,106.11,0,0,1,91.67,0h0a105.88,105.88,0,0,1,0,190.85Z" transform="translate(-7.53 -13.24)"/><circle class="cls-1" cx="336.85" cy="185.56" r="105.84"/><line class="cls-1" x1="336.85" y1="291.4" x2="336.85" y2="79.72"/><path class="cls-1" d="M298.54,294.22s-47.1-105.55,0-190.85" transform="translate(-7.53 -13.24)"/><path class="cls-1" d="M390.21,294.22s47.1-105.55,0-190.85" transform="translate(-7.53 -13.24)"/><line class="cls-1" x1="231.01" y1="185.56" x2="442.69" y2="185.56"/><line class="cls-1" x1="248.25" y1="129.63" x2="423.68" y2="129.63"/><line class="cls-1" x1="248.25" y1="241.48" x2="423.68" y2="241.48"/></svg>
