<?xml version="1.0" standalone="no"?>
<!DOCTYPE svg PUBLIC "-//W3C//DTD SVG 20010904//EN"
 "http://www.w3.org/TR/2001/REC-SVG-20010904/DTD/svg10.dtd">
<svg version="1.0" xmlns="http://www.w3.org/2000/svg"
 width="1155.000000pt" height="1155.000000pt" viewBox="0 0 1155.000000 1155.000000"
 preserveAspectRatio="xMidYMid meet">
<metadata>
Created by potrace 1.14, written by Peter Selinger 2001-2017
</metadata>
<g transform="translate(0.000000,1155.000000) scale(0.100000,-0.100000)"
fill="#000000" stroke="none">
<path d="M4212 8125 l3 -2604 -90 -49 c-117 -64 -219 -112 -238 -112 -9 0 -18
-4 -21 -9 -11 -17 -84 -25 -251 -26 -161 -1 -224 -10 -305 -42 -8 -4 -17 -7
-20 -8 -29 -10 -70 -29 -225 -106 -234 -116 -301 -138 -408 -134 -80 3 -154
12 -169 22 -5 2 -16 6 -25 8 -10 2 -43 11 -73 20 -30 9 -62 17 -70 19 -9 1
-20 5 -25 8 -6 3 -28 9 -50 13 -46 10 -54 12 -57 15 -2 1 -22 3 -45 4 -23 1
-45 5 -49 9 -4 3 -15 2 -25 -4 -13 -6 -19 -6 -19 0 0 7 -9 7 -27 0 -16 -6 -29
-10 -31 -9 -20 11 -142 -50 -142 -71 0 -5 5 -7 10 -4 23 14 71 20 175 19 84 0
127 -6 185 -23 41 -13 79 -27 84 -32 6 -5 19 -9 31 -9 12 0 25 -4 31 -8 5 -4
27 -14 49 -21 22 -8 51 -18 65 -24 31 -13 32 -13 105 -31 76 -19 183 -15 260
9 48 16 254 114 340 163 38 21 117 53 136 55 10 1 19 6 19 11 0 5 3 7 6 4 3
-4 20 -2 37 3 48 14 169 18 224 7 26 -5 54 -11 61 -12 7 -1 13 -6 13 -10 2
-16 -173 -187 -250 -246 -18 -14 -38 -30 -44 -35 -55 -49 -271 -186 -413 -260
-44 -24 -90 -48 -100 -53 -74 -40 -165 -82 -178 -82 -9 0 -16 -4 -16 -9 0 -5
-10 -11 -22 -14 -13 -3 -56 -17 -96 -31 -209 -73 -369 -76 -480 -9 -27 17 -84
61 -130 101 -10 10 -46 41 -80 71 -86 75 -159 129 -212 156 -74 37 -207 78
-288 89 -19 3 -36 7 -39 10 -3 3 -14 1 -24 -5 -11 -5 -19 -6 -19 -1 0 6 -43 8
-97 7 -106 -3 -155 -10 -184 -26 -11 -5 -19 -8 -19 -5 0 3 -52 -13 -116 -35
-220 -75 -317 -65 -427 45 -71 72 -70 70 -144 179 -31 45 -60 84 -65 85 -4 2
-8 10 -8 17 0 7 -6 15 -14 18 -13 5 -12 -6 8 -78 14 -52 63 -166 75 -175 4 -3
18 -21 31 -40 73 -104 221 -187 340 -190 47 -2 126 6 137 13 6 4 23 9 39 12
16 3 74 19 129 34 87 26 113 29 205 26 120 -3 160 -9 227 -31 54 -18 165 -65
173 -74 3 -3 22 -14 44 -25 21 -11 40 -26 43 -32 3 -7 10 -13 16 -13 5 0 31
-17 56 -37 52 -42 211 -197 211 -205 0 -3 -17 -2 -37 2 -62 14 -134 22 -195
24 -32 0 -58 3 -58 6 0 10 -176 0 -300 -16 -30 -4 -63 -8 -72 -7 -10 0 -18 -3
-18 -7 0 -4 -6 -7 -12 -7 -28 -1 -76 -13 -133 -33 -33 -12 -68 -23 -78 -25
-42 -9 -229 -108 -322 -170 -174 -116 -253 -185 -525 -453 -192 -190 -202
-208 -66 -117 33 22 66 45 74 50 9 6 25 17 36 27 63 50 115 92 142 116 17 15
42 36 55 47 13 11 67 56 119 100 52 44 111 91 130 105 19 13 44 32 54 42 11
10 23 18 27 18 4 0 14 6 21 13 36 33 251 139 308 152 8 2 42 10 74 19 129 34
296 38 531 11 22 -3 63 -7 90 -10 70 -8 357 -9 381 -2 10 4 39 9 64 13 63 9
73 10 90 17 13 4 67 19 121 32 9 2 39 11 65 20 27 9 54 18 59 19 43 10 101 32
107 41 4 5 8 7 8 3 0 -6 60 10 104 28 16 6 14 -1 -11 -37 -17 -24 -32 -48 -33
-54 -2 -5 -10 -26 -18 -45 -9 -19 -17 -39 -18 -45 -13 -49 -18 -69 -30 -129
-15 -73 -22 -127 -29 -236 -3 -36 -7 -81 -10 -100 -2 -19 -7 -69 -11 -110 -3
-41 -8 -78 -10 -81 -2 -3 -6 -21 -9 -40 -3 -19 -8 -42 -11 -51 -3 -9 -7 -26
-9 -37 -6 -34 -57 -141 -66 -141 -5 0 -9 -7 -9 -17 0 -9 -7 -23 -15 -32 -15
-15 -96 -126 -169 -230 -62 -89 -90 -160 -90 -231 1 -67 31 -153 58 -163 15
-6 18 26 16 159 -3 99 25 146 241 408 37 45 92 134 117 187 21 46 65 195 76
254 3 17 7 41 10 55 3 14 7 41 10 60 3 19 8 46 10 60 4 23 12 71 21 125 7 45
16 92 27 130 5 22 11 45 12 50 4 24 40 130 45 135 3 3 14 23 24 44 39 85 150
226 177 226 5 0 10 4 10 8 0 5 12 15 28 23 15 8 29 17 32 20 10 12 150 78 150
71 0 -4 4 -2 8 3 4 6 45 28 92 50 80 37 185 108 256 172 17 15 62 55 99 88 38
33 79 69 91 80 73 67 96 86 164 138 41 31 86 66 100 77 14 11 30 20 37 20 6 0
13 4 15 9 5 14 200 111 210 105 4 -3 8 -1 8 4 0 5 10 12 23 15 12 3 49 13 82
22 71 21 95 24 200 30 44 2 82 5 85 6 7 2 115 -7 185 -16 34 -4 178 -37 184
-41 4 -3 -157 -284 -169 -294 -3 -3 -18 -25 -34 -50 -16 -25 -63 -78 -105
-119 -58 -57 -95 -83 -157 -113 -45 -21 -86 -38 -92 -38 -5 0 -27 -8 -48 -17
-22 -9 -45 -18 -51 -19 -30 -5 -131 -92 -170 -144 -53 -71 -117 -199 -159
-315 -9 -27 -20 -54 -24 -60 -4 -5 -15 -32 -25 -60 -26 -71 -88 -197 -123
-247 -65 -94 -168 -173 -259 -197 -15 -4 -28 -14 -31 -22 -2 -8 0 -10 5 -4 4
6 36 11 70 12 122 5 248 89 335 223 46 72 139 250 130 250 -4 0 -2 4 3 8 6 4
28 42 50 85 21 43 45 83 52 89 7 6 13 15 13 20 0 14 18 35 98 115 40 40 79 73
87 73 8 0 15 5 15 12 0 6 3 8 7 5 3 -4 11 -3 17 2 18 14 116 41 116 31 0 -4
-9 -29 -20 -54 -10 -25 -17 -46 -13 -46 3 0 1 -6 -5 -12 -16 -21 -67 -243 -64
-283 0 -11 -4 -23 -11 -27 -9 -6 -9 -8 1 -8 8 0 10 -5 6 -12 -8 -13 -9 -25
-29 -283 -3 -33 -7 -76 -10 -95 -2 -19 -7 -53 -10 -75 -3 -22 -7 -51 -10 -65
-3 -14 -8 -36 -10 -50 -21 -124 -95 -262 -193 -357 -61 -60 -190 -153 -212
-153 -5 0 -10 -5 -10 -12 0 -6 -3 -9 -6 -5 -4 3 -23 -5 -43 -18 -19 -14 -39
-25 -43 -25 -11 0 -239 -130 -255 -145 -8 -8 -17 -15 -21 -15 -4 0 -23 -15
-43 -33 -20 -17 -47 -41 -60 -53 -74 -65 -159 -213 -212 -366 -23 -68 -44
-140 -48 -163 -1 -5 -5 -20 -10 -33 -5 -12 -11 -33 -13 -45 -5 -24 -6 -26 -36
-142 -20 -74 -61 -204 -80 -250 -49 -119 -85 -177 -158 -258 -82 -89 -114
-134 -127 -175 -6 -22 -5 -22 16 -10 55 31 141 116 185 180 16 24 31 45 35 48
7 7 100 188 99 195 0 3 7 22 15 42 9 21 17 44 18 53 2 8 5 20 8 25 6 9 32 83
34 95 0 3 6 21 12 40 6 19 19 63 29 97 11 35 23 63 27 63 5 0 5 5 2 10 -4 6
-1 17 5 25 7 8 9 15 5 15 -4 0 -2 7 5 15 7 8 10 15 6 15 -4 0 2 17 13 37 10
21 20 43 21 48 8 33 86 195 99 205 3 3 18 23 32 45 40 60 138 155 215 207 74
49 117 73 294 164 63 32 117 62 118 66 2 5 12 8 22 8 10 0 20 3 22 8 2 4 27
23 56 41 29 19 68 49 87 67 18 17 36 30 38 27 12 -11 -72 -290 -120 -400 -9
-21 -17 -43 -19 -49 -1 -5 -14 -39 -28 -75 -15 -35 -29 -71 -31 -79 -2 -8 -20
-62 -40 -120 -21 -58 -39 -116 -41 -129 -3 -14 -7 -28 -9 -31 -2 -4 -7 -22
-10 -41 -3 -19 -10 -52 -15 -73 -13 -60 -10 -245 6 -306 7 -30 21 -73 31 -95
26 -59 101 -172 120 -179 15 -6 16 -5 1 11 -8 10 -23 36 -33 58 -9 22 -21 49
-26 60 -5 11 -12 31 -15 45 -3 14 -8 36 -11 50 -18 81 9 350 39 388 6 6 8 12
5 12 -3 0 8 35 25 78 16 42 35 92 41 109 5 18 14 33 19 33 5 0 6 5 2 11 -3 6
-2 14 3 18 5 3 20 31 32 61 13 30 40 91 61 135 69 149 123 293 145 390 10 44
35 182 39 220 3 22 5 40 6 40 1 0 3 16 4 35 4 43 16 146 21 180 2 14 7 52 10
85 4 33 9 78 12 100 2 22 6 54 8 70 2 17 6 49 9 73 3 23 9 61 12 85 7 53 17
115 34 202 24 131 71 295 113 395 6 14 11 28 11 32 1 3 4 10 9 14 4 4 7 16 7
26 0 10 5 18 12 18 6 0 9 3 6 6 -8 7 60 146 76 156 6 4 8 8 4 8 -9 0 54 110
99 173 19 26 32 47 29 47 -3 0 1 8 10 18 41 46 74 88 74 95 0 4 10 19 23 31
12 13 32 38 45 55 13 16 74 82 136 146 95 97 114 113 119 96 2 -11 2 -23 -1
-26 -4 -3 -7 -21 -7 -38 -1 -18 -3 -37 -6 -42 -11 -21 1 -377 14 -420 4 -11 9
-38 12 -60 3 -22 7 -47 8 -55 16 -71 65 -249 92 -340 13 -41 27 -88 31 -105
10 -41 11 -45 14 -47 2 -4 10 -37 15 -63 2 -11 4 -20 5 -20 2 0 8 -24 20 -80
19 -88 23 -119 24 -162 1 -24 3 -43 6 -43 3 0 5 -36 5 -80 0 -44 -4 -80 -8
-80 -4 0 -3 -8 2 -19 6 -10 7 -21 4 -25 -4 -3 -7 -19 -8 -34 -3 -50 -16 -146
-22 -154 -2 -5 -6 -21 -8 -36 -15 -99 -142 -494 -166 -512 -3 -3 -12 -23 -19
-45 -7 -22 -16 -44 -20 -50 -4 -5 -14 -28 -23 -50 -16 -42 -78 -175 -153 -332
-24 -50 -44 -96 -44 -102 0 -6 -4 -11 -10 -11 -5 0 -10 -5 -10 -10 0 -6 -20
-52 -44 -103 -71 -151 -103 -224 -139 -317 -14 -36 -31 -78 -38 -95 -7 -16
-13 -34 -15 -40 -3 -13 -51 -171 -64 -212 -6 -17 -13 -44 -15 -60 -3 -15 -14
-59 -25 -98 -12 -38 -23 -81 -26 -94 -3 -13 -9 -32 -15 -43 -5 -10 -8 -18 -5
-18 3 0 -11 -44 -30 -97 -33 -94 -94 -214 -121 -241 -7 -7 -18 -21 -25 -30
-35 -48 -135 -113 -213 -139 l-40 -13 60 5 c107 8 180 42 258 118 48 47 131
180 142 227 10 39 19 60 27 60 5 0 7 4 4 9 -3 4 1 26 9 47 7 22 17 48 21 59 4
11 8 25 9 30 2 6 12 42 25 80 12 39 23 77 25 85 2 8 13 47 26 85 13 39 24 72
24 75 3 9 17 44 39 95 12 28 29 65 37 83 14 32 35 43 36 20 0 -7 3 -26 6 -41
3 -15 18 -89 32 -165 78 -398 164 -643 284 -806 23 -31 43 -56 45 -56 5 0 -3
37 -11 60 -3 8 -7 20 -8 25 -3 11 -63 191 -72 215 -4 8 -5 18 -5 23 1 4 -3 7
-10 7 -6 0 -9 3 -5 6 3 4 -5 35 -18 70 -13 35 -25 68 -26 72 -2 10 -10 34 -16
52 -4 8 -8 24 -10 35 -2 11 -12 49 -23 85 -10 36 -21 76 -24 90 -2 14 -10 50
-16 80 -6 30 -14 78 -18 105 -9 67 -9 314 1 392 7 62 44 199 68 258 7 17 13
35 14 40 7 29 112 233 183 355 11 19 43 76 72 125 56 96 140 251 141 260 1 2
3 14 6 26 6 20 8 19 40 -17 56 -64 127 -231 139 -329 2 -16 6 -43 10 -59 3
-15 8 -47 10 -70 3 -22 6 -57 8 -76 4 -38 15 -154 21 -235 7 -84 14 -149 19
-175 3 -14 7 -41 10 -60 5 -31 15 -71 31 -132 3 -10 7 -26 9 -35 8 -37 61
-161 99 -232 73 -140 159 -249 270 -346 38 -33 74 -65 81 -71 18 -17 46 -24
46 -12 0 36 -94 184 -167 263 -16 17 -48 55 -73 85 -25 30 -50 60 -56 67 -28
30 -96 185 -110 253 -12 58 -15 109 -10 225 3 83 8 166 11 185 3 19 8 104 9
188 4 142 1 169 -26 282 -4 15 -80 166 -155 310 -82 155 -93 196 -89 328 3 59
7 121 11 137 13 60 6 368 -9 453 -2 9 -7 42 -11 72 -4 30 -8 62 -10 70 -1 8
-6 37 -9 63 -4 27 -9 59 -12 70 -2 12 -9 47 -15 77 -5 30 -12 69 -14 85 -3 17
-9 53 -15 80 -13 66 -29 165 -36 220 -1 11 -3 20 -5 20 -1 0 -3 16 -4 35 -2
19 -4 35 -5 35 -1 0 -3 16 -5 35 -1 19 -13 60 -25 90 -12 30 -24 73 -27 95
-10 86 -13 113 -19 200 -9 128 -9 129 9 118 6 -4 17 -8 22 -9 6 -1 44 -17 85
-36 47 -22 99 -38 138 -42 76 -8 197 -32 214 -42 4 -3 8 -12 8 -21 0 -9 15
-32 33 -52 17 -20 43 -52 57 -70 14 -19 33 -43 43 -55 10 -11 26 -33 35 -48 9
-16 20 -28 24 -28 4 0 8 -7 8 -15 0 -8 5 -15 10 -15 6 0 10 -4 10 -10 0 -5 20
-40 44 -77 90 -141 186 -332 227 -455 7 -21 17 -38 22 -38 4 0 6 -4 3 -9 -3
-4 1 -26 9 -47 31 -87 92 -316 100 -378 1 -12 7 -48 13 -81 6 -33 13 -73 16
-90 10 -67 27 -182 31 -220 3 -22 7 -56 10 -75 3 -19 7 -53 10 -75 2 -22 7
-60 10 -85 3 -25 8 -61 10 -80 2 -19 8 -64 13 -100 10 -67 12 -79 15 -130 1
-16 4 -30 8 -30 3 0 5 -10 6 -22 0 -13 3 -34 6 -48 3 -14 8 -34 11 -45 14 -66
61 -175 154 -365 58 -118 106 -217 107 -220 0 -3 8 -22 18 -42 85 -188 115
-338 94 -488 -7 -53 -10 -65 -50 -152 -16 -38 -34 -68 -38 -68 -5 0 -9 -5 -9
-12 0 -6 -8 -21 -17 -32 l-18 -21 24 20 c43 37 113 145 144 223 25 65 30 93
33 182 1 58 -2 134 -8 170 -9 61 -68 271 -87 315 -19 42 -46 120 -43 127 1 5
-2 8 -8 8 -6 0 -9 3 -9 7 1 5 0 11 -1 16 -1 4 -4 12 -5 17 -1 6 -4 12 -5 15
-1 3 -3 8 -4 13 -1 4 -10 25 -20 47 -10 22 -19 47 -22 55 -2 8 -17 56 -34 105
-34 100 -60 195 -66 239 -2 15 -6 38 -10 50 -5 16 4 12 37 -20 24 -22 55 -51
69 -63 34 -31 172 -122 245 -161 130 -71 151 -83 164 -94 8 -6 15 -9 15 -7 4
16 200 -123 267 -189 63 -63 158 -190 142 -190 -4 0 -3 -4 2 -8 10 -7 18 -22
48 -92 14 -33 66 -187 71 -213 2 -7 5 -19 8 -27 3 -8 18 -60 33 -115 46 -172
64 -226 123 -355 9 -19 18 -37 21 -40 4 -3 12 -17 19 -31 15 -29 76 -103 107
-130 62 -55 80 -68 84 -63 3 3 1 8 -5 12 -18 12 -94 113 -94 125 0 6 -6 18
-13 26 -16 18 -77 168 -79 191 0 3 -4 12 -9 21 -7 14 -92 334 -102 385 -2 11
-7 26 -10 34 -5 14 -16 61 -18 77 -1 5 -10 29 -20 56 -10 26 -16 47 -13 47 4
0 0 7 -7 17 -8 9 -13 17 -11 17 2 1 -2 15 -9 31 -7 17 -13 32 -14 35 -9 27
-18 47 -26 60 -5 8 -14 27 -20 43 -6 15 -14 27 -18 27 -3 0 -12 12 -18 28 -19
41 -118 136 -198 190 -38 26 -73 51 -76 55 -3 5 -10 9 -15 9 -5 0 -35 15 -67
34 -32 19 -60 34 -62 34 -6 0 -249 142 -255 149 -3 3 -23 19 -45 36 -59 43
-127 113 -166 170 -33 49 -88 156 -94 185 -2 8 -10 34 -19 58 -8 23 -15 44
-16 47 0 3 0 6 -1 8 -4 13 -11 48 -14 72 -2 17 -5 30 -6 30 -2 0 -3 9 -13 75
-3 19 -8 51 -12 70 -3 19 -7 58 -9 85 -2 28 -5 50 -6 50 -1 0 -3 16 -4 35 -2
19 -6 62 -10 95 -4 33 -8 78 -10 100 -2 22 -4 40 -5 40 -1 0 -3 11 -5 25 -3
32 -23 158 -30 187 -3 13 -7 33 -10 45 -3 13 -8 36 -11 52 -2 16 -7 33 -10 38
-3 5 5 7 18 5 42 -8 68 -19 68 -29 0 -5 4 -7 9 -4 18 11 190 -138 191 -166 0
-4 6 -13 13 -20 20 -22 32 -45 118 -213 131 -257 167 -309 266 -396 35 -31
146 -86 188 -93 17 -3 40 -8 53 -10 36 -8 25 7 -25 34 -91 48 -197 165 -264
290 -13 25 -27 47 -31 48 -5 2 -8 9 -8 16 0 7 -16 45 -35 85 -19 39 -35 74
-35 76 0 10 -106 223 -134 271 -114 187 -274 298 -460 319 -27 3 -50 6 -50 7
-1 2 -11 17 -24 35 -12 18 -22 34 -22 37 0 7 -92 149 -100 156 -4 3 -10 12
-13 20 -4 8 -15 27 -25 42 -35 54 -140 224 -151 246 -6 12 -8 22 -4 23 4 0 32
1 62 1 49 1 54 3 63 29 5 16 13 29 16 30 4 0 16 3 27 5 38 9 237 10 298 2 79
-11 189 -38 201 -49 6 -5 17 -9 26 -9 21 0 207 -94 233 -118 10 -9 21 -15 24
-13 3 1 16 -6 29 -18 13 -12 27 -21 30 -21 5 0 186 -142 210 -165 6 -5 35 -30
64 -55 29 -25 69 -60 89 -78 20 -18 71 -61 114 -94 42 -34 77 -65 77 -70 0 -4
5 -8 12 -8 6 0 26 -11 44 -25 18 -14 37 -25 42 -25 6 0 12 -4 14 -9 4 -10 163
-81 183 -81 8 0 15 -5 15 -10 0 -6 3 -9 8 -8 11 3 82 -25 82 -33 0 -4 11 -10
25 -13 59 -15 245 -249 245 -308 0 -10 5 -18 10 -18 6 0 9 -3 9 -7 -1 -5 0
-10 1 -13 1 -3 3 -12 5 -20 2 -8 12 -46 23 -85 10 -38 20 -73 21 -77 0 -5 1
-9 2 -10 0 -2 2 -14 4 -28 2 -14 6 -38 10 -55 7 -34 13 -66 20 -110 3 -16 7
-40 9 -51 2 -12 7 -37 10 -55 15 -89 59 -247 91 -326 20 -48 39 -96 42 -105 3
-10 9 -18 14 -18 5 0 9 -5 9 -11 0 -10 52 -91 75 -115 5 -7 27 -32 47 -55 20
-24 49 -57 63 -74 92 -104 134 -219 128 -350 l-3 -80 21 39 c24 45 30 72 33
136 4 95 -33 176 -178 395 -62 93 -122 189 -134 212 -24 48 -43 110 -56 183
-4 19 -9 42 -11 50 -5 20 -17 107 -20 150 -1 19 -5 64 -9 100 -4 36 -9 85 -12
110 -4 42 -10 86 -20 155 -14 93 -67 252 -88 267 -7 5 -4 8 6 8 9 0 20 -4 23
-10 22 -35 260 -108 412 -126 70 -9 534 -10 539 -2 2 3 18 3 34 -2 16 -5 32
-5 34 -2 8 13 389 3 486 -12 88 -14 214 -54 305 -97 64 -30 179 -99 183 -110
2 -5 7 -7 12 -4 4 2 15 -4 25 -15 10 -11 24 -20 32 -20 7 0 13 -3 13 -8 0 -4
26 -26 58 -50 31 -23 76 -59 99 -79 23 -21 69 -63 104 -93 34 -30 74 -66 89
-80 26 -24 111 -98 151 -130 29 -24 79 -63 123 -95 l41 -30 -29 50 c-16 28
-35 57 -42 66 -8 8 -14 18 -14 21 0 15 -239 238 -255 238 -3 0 -13 7 -22 15
-10 8 -65 51 -123 95 -58 44 -113 87 -123 95 -9 8 -20 15 -23 15 -5 0 -23 14
-55 42 -10 10 -22 18 -25 18 -3 0 -24 13 -47 29 -39 27 -71 45 -149 89 -122
67 -333 140 -453 157 -16 3 -41 8 -55 11 -32 9 -422 14 -435 6 -5 -4 -27 -8
-49 -9 l-39 -3 65 62 c149 143 229 204 329 250 120 55 298 82 419 64 93 -13
135 -21 213 -37 49 -10 91 -18 95 -18 4 1 9 0 12 -1 16 -6 156 -15 170 -10 3
1 19 3 35 5 89 9 199 77 262 161 34 44 107 184 97 184 -4 0 -2 6 3 13 6 6 13
30 17 52 3 22 8 54 11 70 6 28 5 29 -8 10 -8 -11 -29 -47 -47 -80 -18 -33 -38
-69 -44 -80 -52 -93 -138 -184 -205 -217 -81 -39 -163 -36 -352 12 -90 23
-175 44 -188 46 -14 3 -28 7 -32 10 -9 5 -84 15 -147 19 -23 1 -62 -1 -85 -5
-23 -5 -55 -10 -72 -13 -104 -17 -298 -126 -471 -266 -6 -5 -35 -26 -65 -47
-30 -21 -56 -41 -59 -44 -16 -17 -136 -78 -175 -89 -28 -8 -203 -5 -245 4 -19
4 -80 23 -135 42 -55 19 -109 37 -120 40 -11 4 -22 9 -25 13 -3 3 -31 17 -62
29 -32 13 -58 27 -58 32 0 5 -7 9 -15 9 -8 0 -29 8 -47 18 -18 10 -78 43 -133
72 -55 29 -108 59 -117 68 -10 8 -18 12 -18 9 0 -6 -239 151 -270 178 -25 21
-204 201 -218 219 -7 9 -9 16 -5 16 4 0 1 4 -7 10 -31 20 12 31 130 34 47 1
90 0 95 -3 6 -3 15 -6 20 -7 33 -6 81 -15 90 -18 6 -2 25 -7 43 -11 18 -4 35
-12 38 -16 3 -5 14 -9 25 -9 10 0 19 -5 19 -11 0 -5 4 -8 8 -5 5 3 19 -1 33
-7 43 -23 202 -89 259 -109 131 -46 264 -53 405 -24 21 4 107 29 245 70 47 14
99 28 115 31 17 3 44 9 60 13 17 3 76 6 132 7 55 0 99 3 97 6 -3 6 -86 34
-134 45 -35 8 -146 9 -200 1 -60 -8 -65 -9 -252 -58 -267 -68 -313 -64 -553
54 -261 128 -355 166 -480 194 -82 18 -267 24 -336 10 -41 -8 -53 -7 -75 9
-15 11 -36 24 -47 31 -11 6 -22 15 -26 20 -3 4 -22 17 -41 27 -19 11 -37 22
-40 26 -10 12 -177 89 -255 118 -44 16 -123 39 -175 52 -52 12 -102 26 -110
30 -13 6 -15 299 -15 2544 l0 2536 -362 0 -363 0 0 -1124 0 -1123 -668 0 -667
0 0 1106 c1 608 -1 1114 -3 1124 -4 16 -30 17 -363 17 l-359 0 2 -2605z m2058
-1335 l0 -1170 -27 6 c-16 4 -36 11 -45 15 -30 16 -35 10 -28 -36 6 -43 6 -45
-14 -39 -12 4 -28 12 -36 18 -14 11 -140 70 -185 86 -11 4 -39 15 -62 25 -23
9 -46 14 -51 11 -6 -3 -13 -2 -16 3 -9 15 -224 60 -260 55 -9 -1 -16 1 -16 4
0 8 -40 10 -210 11 -137 1 -172 -2 -240 -20 -25 -6 -54 -13 -65 -15 -11 -2
-34 -6 -50 -9 l-30 -5 0 1115 0 1115 667 0 668 0 0 -1170z"/>
</g>
</svg>
